<svg xmlns="http://www.w3.org/2000/svg" xmlns:xlink="http://www.w3.org/1999/xlink" width="512" zoomAndPan="magnify" viewBox="0 0 384 383.999986" height="512" preserveAspectRatio="xMidYMid meet" version="1.0"><defs><clipPath id="24910f05f7"><path d="M 162 47 L 377.492188 47 L 377.492188 218 L 162 218 Z M 162 47 " clip-rule="nonzero"/></clipPath><clipPath id="535eb4aa77"><path d="M 79 6.242188 L 288 6.242188 L 288 197 L 79 197 Z M 79 6.242188 " clip-rule="nonzero"/></clipPath><clipPath id="716711ae73"><path d="M 22 232 L 266 232 L 266 377.492188 L 22 377.492188 Z M 22 232 " clip-rule="nonzero"/></clipPath><clipPath id="aa2f29b86b"><path d="M 6.242188 53 L 174 53 L 174 280 L 6.242188 280 Z M 6.242188 53 " clip-rule="nonzero"/></clipPath></defs><g clip-path="url(#24910f05f7)"><path fill="#ffffff" d="M 308.457031 47.324219 C 300.902344 47.269531 293.332031 47.605469 285.71875 48.417969 C 257.824219 51.472656 231.539062 60.226562 207.609375 74.429688 C 190.632812 84.414062 175.550781 96.96875 162.398438 111.589844 C 171.671875 108.089844 181.679688 106.085938 192.167969 106.085938 C 192.191406 106.085938 192.222656 106.085938 192.242188 106.085938 L 192.242188 106.039062 C 210.121094 106.214844 227.886719 108.664062 245.058594 113.304688 C 270.136719 119.976562 293.425781 131.09375 314.238281 146.339844 C 338.523438 163.933594 358.449219 186.238281 373.421875 212.613281 C 374.3125 214.195312 375.125 215.796875 375.96875 217.390625 C 377.117188 209.078125 377.75 200.609375 377.75 191.996094 C 377.75 133.515625 350.699219 81.371094 308.457031 47.324219 Z M 308.457031 47.324219 " fill-opacity="1" fill-rule="nonzero"/></g><g clip-path="url(#535eb4aa77)"><path fill="#ffffff" d="M 82.59375 60.351562 C 77.527344 87.949219 78.371094 115.644531 85.109375 142.640625 C 89.808594 161.757812 97.507812 179.796875 107.75 196.585938 C 107.617188 194.660156 107.457031 192.746094 107.457031 190.789062 C 107.457031 178.839844 109.96875 167.46875 114.460938 157.152344 L 114.390625 157.121094 C 121.59375 140.851562 130.875 125.511719 141.988281 111.519531 C 158.058594 91.148438 177.492188 74.175781 199.726562 61.09375 C 225.546875 45.769531 253.929688 36.320312 284.046875 33.023438 C 285.238281 32.890625 286.421875 32.835938 287.605469 32.726562 C 259.679688 15.925781 226.972656 6.242188 191.996094 6.242188 C 153.539062 6.242188 117.8125 17.929688 88.175781 37.945312 C 85.90625 45.265625 84.019531 52.710938 82.59375 60.351562 Z M 82.59375 60.351562 " fill-opacity="1" fill-rule="nonzero"/></g><path fill="#ffffff" d="M 359.964844 220.238281 C 346.09375 195.820312 327.636719 175.164062 305.128906 158.847656 C 289.230469 147.207031 271.730469 138.335938 253.070312 132.058594 C 262.351562 141.679688 269.378906 153.460938 273.308594 166.578125 L 273.378906 166.5625 C 278.332031 183.707031 281.082031 201.4375 281.5625 219.246094 C 282.359375 245.207031 278.386719 270.703125 269.765625 294.996094 C 259.859375 323.316406 244.199219 348.804688 223.242188 370.707031 C 221.523438 372.488281 219.757812 374.199219 217.996094 375.90625 C 291.390625 365.621094 351 312.457031 370.730469 242.535156 C 367.609375 234.945312 364.058594 227.507812 359.964844 220.238281 Z M 359.964844 220.238281 " fill-opacity="1" fill-rule="nonzero"/><g clip-path="url(#716711ae73)"><path fill="#ffffff" d="M 192.230469 377.742188 C 199.15625 372.246094 205.851562 366.449219 212.066406 359.988281 C 231.46875 339.710938 245.972656 316.101562 255.152344 289.851562 C 261.738281 271.320312 265.214844 252.035156 265.886719 232.375 C 259.230469 244.132812 249.859375 254.148438 238.613281 261.5625 L 238.667969 261.644531 C 223.667969 271.304688 207.484375 279.023438 190.542969 284.585938 C 169.242188 291.683594 147.238281 295.269531 125.015625 295.269531 C 121.550781 295.269531 118.074219 295.183594 114.589844 295.003906 C 84.621094 293.636719 55.722656 285.941406 28.710938 272.148438 C 26.683594 271.105469 24.832031 269.867188 22.84375 268.765625 C 52.078125 333.039062 116.789062 377.75 191.996094 377.75 C 192.074219 377.75 192.152344 377.742188 192.230469 377.742188 Z M 192.230469 377.742188 " fill-opacity="1" fill-rule="nonzero"/></g><g clip-path="url(#aa2f29b86b)"><path fill="#ffffff" d="M 19.609375 249.039062 L 22.085938 249.671875 L 21.867188 250.347656 C 26.40625 253.15625 30.988281 255.902344 35.792969 258.378906 C 60.792969 271.144531 87.5625 278.269531 115.34375 279.539062 C 134.960938 280.53125 154.449219 278.339844 173.453125 273.347656 C 160.0625 270.316406 147.855469 264.128906 137.703125 255.570312 L 137.625 255.65625 C 124.09375 244.078125 112.050781 230.78125 101.851562 216.128906 C 86.9375 194.898438 76.25 171.417969 70.09375 146.363281 C 62.820312 117.238281 61.898438 87.347656 67.371094 57.535156 C 67.617188 56.1875 67.9375 54.863281 68.214844 53.523438 C 30.195312 87.539062 6.242188 136.964844 6.242188 191.996094 C 6.242188 210.523438 8.988281 228.410156 14.042969 245.300781 C 15.886719 246.554688 17.710938 247.832031 19.609375 249.039062 Z M 19.609375 249.039062 " fill-opacity="1" fill-rule="nonzero"/></g></svg>