<svg xmlns="http://www.w3.org/2000/svg" xmlns:xlink="http://www.w3.org/1999/xlink" width="512" zoomAndPan="magnify" viewBox="0 0 384 383.999986" height="512" preserveAspectRatio="xMidYMid meet" version="1.0"><defs><clipPath id="76bef6e4bf"><path d="M 162 47 L 377.492188 47 L 377.492188 218 L 162 218 Z M 162 47 " clip-rule="nonzero"/></clipPath><clipPath id="2e696d1064"><path d="M 79 6.242188 L 288 6.242188 L 288 197 L 79 197 Z M 79 6.242188 " clip-rule="nonzero"/></clipPath><clipPath id="43be94676f"><path d="M 22 232 L 266 232 L 266 377.492188 L 22 377.492188 Z M 22 232 " clip-rule="nonzero"/></clipPath><clipPath id="72029d199b"><path d="M 6.242188 53 L 174 53 L 174 280 L 6.242188 280 Z M 6.242188 53 " clip-rule="nonzero"/></clipPath></defs><g clip-path="url(#76bef6e4bf)"><path fill="#000000" d="M 308.246094 47.296875 C 300.699219 47.242188 293.132812 47.574219 285.523438 48.386719 C 257.648438 51.441406 231.382812 60.191406 207.46875 74.382812 C 190.507812 84.359375 175.433594 96.90625 162.292969 111.515625 C 171.558594 108.019531 181.558594 106.015625 192.039062 106.015625 C 192.0625 106.015625 192.09375 106.015625 192.113281 106.015625 L 192.113281 105.96875 C 209.980469 106.148438 227.730469 108.589844 244.894531 113.230469 C 269.953125 119.898438 293.226562 131.003906 314.023438 146.242188 C 338.292969 163.824219 358.203125 186.113281 373.167969 212.472656 C 374.058594 214.050781 374.871094 215.652344 375.714844 217.242188 C 376.859375 208.9375 377.492188 200.476562 377.492188 191.867188 C 377.492188 133.425781 350.460938 81.320312 308.246094 47.296875 Z M 308.246094 47.296875 " fill-opacity="1" fill-rule="nonzero"/></g><g clip-path="url(#2e696d1064)"><path fill="#000000" d="M 82.542969 60.3125 C 77.476562 87.894531 78.320312 115.566406 85.054688 142.546875 C 89.75 161.648438 97.445312 179.679688 107.679688 196.453125 C 107.546875 194.527344 107.386719 192.617188 107.386719 190.660156 C 107.386719 178.71875 109.898438 167.355469 114.382812 157.046875 L 114.316406 157.015625 C 121.515625 140.757812 130.789062 125.429688 141.894531 111.445312 C 157.953125 91.089844 177.375 74.128906 199.59375 61.054688 C 225.394531 45.742188 253.757812 36.296875 283.851562 33.003906 C 285.042969 32.871094 286.226562 32.816406 287.410156 32.710938 C 259.503906 15.917969 226.820312 6.242188 191.867188 6.242188 C 153.433594 6.242188 117.734375 17.921875 88.117188 37.921875 C 85.851562 45.238281 83.964844 52.679688 82.542969 60.3125 Z M 82.542969 60.3125 " fill-opacity="1" fill-rule="nonzero"/></g><path fill="#000000" d="M 359.71875 220.089844 C 345.859375 195.6875 327.414062 175.046875 304.921875 158.742188 C 289.035156 147.109375 271.546875 138.246094 252.898438 131.972656 C 262.171875 141.585938 269.195312 153.359375 273.125 166.46875 L 273.195312 166.453125 C 278.144531 183.582031 280.890625 201.304688 281.371094 219.101562 C 282.167969 245.042969 278.199219 270.519531 269.582031 294.796875 C 259.683594 323.097656 244.035156 348.566406 223.089844 370.453125 C 221.375 372.234375 219.609375 373.941406 217.847656 375.652344 C 291.191406 365.371094 350.761719 312.246094 370.476562 242.371094 C 367.359375 234.785156 363.808594 227.351562 359.71875 220.089844 Z M 359.71875 220.089844 " fill-opacity="1" fill-rule="nonzero"/><g clip-path="url(#43be94676f)"><path fill="#000000" d="M 192.097656 377.484375 C 199.023438 371.992188 205.710938 366.199219 211.921875 359.742188 C 231.3125 339.476562 245.808594 315.886719 254.980469 289.652344 C 261.5625 271.136719 265.035156 251.863281 265.707031 232.21875 C 259.054688 243.964844 249.691406 253.972656 238.453125 261.382812 L 238.503906 261.46875 C 223.515625 271.121094 207.34375 278.832031 190.414062 284.394531 C 169.128906 291.484375 147.140625 295.066406 124.933594 295.066406 C 121.46875 295.066406 117.996094 294.980469 114.515625 294.804688 C 84.570312 293.433594 55.6875 285.746094 28.695312 271.964844 C 26.667969 270.921875 24.820312 269.683594 22.832031 268.585938 C 52.046875 332.8125 116.710938 377.492188 191.867188 377.492188 C 191.945312 377.492188 192.023438 377.484375 192.097656 377.484375 Z M 192.097656 377.484375 " fill-opacity="1" fill-rule="nonzero"/></g><g clip-path="url(#72029d199b)"><path fill="#000000" d="M 19.601562 248.871094 L 22.074219 249.503906 L 21.859375 250.175781 C 26.390625 252.984375 30.96875 255.730469 35.773438 258.207031 C 60.753906 270.960938 87.507812 278.082031 115.265625 279.351562 C 134.871094 280.339844 154.347656 278.152344 173.335938 273.164062 C 159.957031 270.132812 147.757812 263.953125 137.609375 255.398438 L 137.535156 255.484375 C 124.015625 243.914062 111.980469 230.625 101.785156 215.984375 C 86.882812 194.769531 76.199219 171.300781 70.050781 146.265625 C 62.78125 117.160156 61.859375 87.292969 67.328125 57.5 C 67.574219 56.152344 67.894531 54.828125 68.171875 53.492188 C 30.179688 87.484375 6.242188 136.875 6.242188 191.867188 C 6.242188 210.382812 8.988281 228.257812 14.039062 245.132812 C 15.878906 246.386719 17.703125 247.664062 19.601562 248.871094 Z M 19.601562 248.871094 " fill-opacity="1" fill-rule="nonzero"/></g></svg>